External Loads File
version=1
nRows=85
nColumns=13
Range=5.000000e-03-10 seconds
endheader
time 	forceRightX 	forceRightY 	forceRightZ 	pointRightX 	pointRightY 	pointRightZ 	forceLeftX 	forceLeftY 	forceLeftZ 	pointLeftX 	pointLeftY 	pointLeftZ 		
0.005000 -31.190786 307.873041 -0.000000 0.370144 0.459897 -0.119051 -35.650178 343.466050 -0.000000 0.122757 0.210609 -0.359884
0.010000 -30.481983 307.836017 -0.000000 0.370068 0.459999 -0.119049 -35.790874 343.641225 -0.000000 0.122725 0.210533 -0.359933
0.015000 -29.857501 307.857156 -0.000000 0.369997 0.460086 -0.119036 -35.977595 343.827745 -0.000000 0.122776 0.210446 -0.359921
0.020000 -30.272441 307.879222 -0.000000 0.369885 0.460164 -0.118945 -37.229499 343.913231 -0.000000 0.122812 0.208840 -0.359917
0.025000 -28.661900 308.200933 -0.000000 0.369841 0.460234 -0.118961 -36.086278 344.274964 -0.000000 0.122533 0.210251 -0.360784
0.030000 -28.356833 308.477635 -0.000000 0.369762 0.460341 -0.118958 -36.239722 344.530716 -0.000000 0.122652 0.210214 -0.360394
0.035000 -28.096346 308.799477 -0.000000 0.369681 0.460411 -0.118960 -36.274854 344.831588 -0.000000 0.122679 0.210162 -0.360388
0.040000 -27.907387 309.138899 -0.000000 0.369621 0.460453 -0.118963 -36.246509 345.154114 -0.000000 0.122709 0.210101 -0.360388
0.045000 -27.830829 309.472162 -0.000000 0.369571 0.460490 -0.118960 -36.245724 345.456141 -0.000000 0.122836 0.210049 -0.360291
0.050000 -27.651644 309.802717 -0.000000 0.369524 0.460515 -0.118956 -36.085769 345.722767 -0.000000 0.122759 0.210003 -0.360368
0.055000 -27.588981 310.106643 -0.000000 0.369480 0.460530 -0.118939 -36.059693 345.896135 -0.000000 0.122870 0.209976 -0.360271
0.060000 -27.420445 310.410082 -0.000000 0.369469 0.460537 -0.118938 -35.946167 345.984112 -0.000000 0.122875 0.209977 -0.360267
0.065000 -27.191335 310.704684 -0.000000 0.369455 0.460535 -0.118931 -35.782070 345.985593 -0.000000 0.122768 0.209984 -0.360345
0.070000 -27.038549 310.948111 -0.000000 0.369467 0.460506 -0.118934 -35.666567 345.907942 -0.000000 0.122752 0.209996 -0.360355
0.075000 -26.945412 311.097759 -0.000000 0.369491 0.460458 -0.118931 -35.522296 345.779699 -0.000000 0.122738 0.210035 -0.360351
0.080000 -26.968441 311.112577 -0.000000 0.369528 0.460425 -0.118933 -35.375869 345.619284 -0.000000 0.122726 0.210084 -0.360342
0.085000 -27.077113 310.976537 -0.000000 0.369581 0.460375 -0.118927 -35.180835 345.452579 -0.000000 0.122684 0.210124 -0.360326
0.090000 -27.285932 310.684972 -0.000000 0.369631 0.460312 -0.118939 -34.962781 345.288360 -0.000000 0.122660 0.210191 -0.360325
0.095000 -27.560630 310.252171 -0.000000 0.369694 0.460224 -0.118950 -34.715258 345.128578 -0.000000 0.122619 0.210252 -0.360333
0.100000 -27.893027 309.712925 -0.000000 0.369771 0.460145 -0.118945 -34.485145 344.968648 -0.000000 0.122584 0.210333 -0.360319
0.105000 -28.237826 309.127834 -0.000000 0.369845 0.460058 -0.118949 -34.304394 344.802387 -0.000000 0.122541 0.210421 -0.360321
0.110000 -28.546435 308.558974 -0.000000 0.369926 0.459961 -0.118967 -34.207961 344.615652 -0.000000 0.122502 0.210500 -0.360324
0.115000 -28.777049 308.046693 -0.000000 0.369999 0.459860 -0.118970 -34.213646 344.398119 -0.000000 0.122455 0.210582 -0.360328
0.120000 -28.960000 307.603163 -0.000000 0.370073 0.459750 -0.118978 -34.383477 344.147864 -0.000000 0.122508 0.210670 -0.360248
0.125000 -28.980512 307.246352 -0.000000 0.370150 0.459669 -0.118988 -34.585084 343.889972 -0.000000 0.122452 0.210775 -0.360248
0.130000 -28.933174 306.971845 -0.000000 0.370224 0.459568 -0.118993 -34.892160 343.625442 -0.000000 0.122418 0.210865 -0.360268
0.135000 -28.840900 306.773637 -0.000000 0.370292 0.459507 -0.119016 -35.274943 343.360282 -0.000000 0.122361 0.210973 -0.360268
0.140000 -28.744435 306.634547 -0.000000 0.370358 0.459428 -0.119016 -35.711760 343.096030 -0.000000 0.122323 0.211070 -0.360268
0.145000 -28.648794 306.537249 -0.000000 0.370427 0.459359 -0.119015 -36.142804 342.830752 -0.000000 0.122276 0.211181 -0.360281
0.150000 -28.607647 306.461442 -0.000000 0.370480 0.459261 -0.119024 -36.570344 342.553617 -0.000000 0.122236 0.211243 -0.360286
0.155000 -28.611053 306.401196 -0.000000 0.370515 0.459183 -0.119029 -36.934527 342.275844 -0.000000 0.122183 0.211312 -0.360280
0.160000 -28.645760 306.368868 -0.000000 0.370552 0.459121 -0.119033 -37.189540 342.025535 -0.000000 0.122149 0.211406 -0.360281
0.165000 -28.679494 306.394065 -0.000000 0.370598 0.459074 -0.119043 -37.300280 341.826450 -0.000000 0.122041 0.211456 -0.360329
0.170000 -28.771702 306.494266 -0.000000 0.370619 0.459011 -0.119040 -37.371734 341.666708 -0.000000 0.122009 0.211498 -0.360334
0.175000 -28.850860 306.676576 -0.000000 0.370639 0.458937 -0.119050 -37.379110 341.536291 -0.000000 0.121986 0.211559 -0.360333
0.180000 -28.946414 306.914232 -0.000000 0.370665 0.458885 -0.119049 -37.387935 341.426286 -0.000000 0.121935 0.211596 -0.360334
0.185000 -29.060906 307.179829 -0.000000 0.370677 0.458815 -0.119062 -37.410631 341.352736 -0.000000 0.121905 0.211641 -0.360352
0.190000 -29.199291 307.467197 -0.000000 0.370693 0.458794 -0.119062 -37.476147 341.330629 -0.000000 0.121874 0.211659 -0.360349
0.195000 -29.261132 307.798863 -0.000000 0.370694 0.458752 -0.119061 -37.510492 341.374349 -0.000000 0.121864 0.211695 -0.360356
0.200000 -29.244344 308.177263 -0.000000 0.370696 0.458731 -0.119064 -37.523407 341.484439 -0.000000 0.121851 0.211710 -0.360360
0.205000 -29.155076 308.571274 -0.000000 0.370699 0.458720 -0.119069 -37.499619 341.657939 -0.000000 0.121838 0.211702 -0.360356
0.210000 -28.988209 308.928552 -0.000000 0.370701 0.458697 -0.119054 -37.412422 341.876716 -0.000000 0.121821 0.211713 -0.360372
0.215000 -28.852063 309.190577 -0.000000 0.370688 0.458711 -0.119066 -37.384524 342.096196 -0.000000 0.121822 0.211702 -0.360362
0.220000 -28.692102 309.332551 -0.000000 0.370693 0.458725 -0.119069 -37.360535 342.298925 -0.000000 0.121819 0.211700 -0.360358
0.225000 -28.598714 309.332306 -0.000000 0.370686 0.458766 -0.119067 -37.414541 342.471665 -0.000000 0.121818 0.211660 -0.360357
0.230000 -28.543894 309.190859 -0.000000 0.370674 0.458800 -0.119073 -37.466668 342.629012 -0.000000 0.121830 0.211632 -0.360330
0.235000 -28.561330 308.921376 -0.000000 0.370654 0.458865 -0.119074 -37.528401 342.764752 -0.000000 0.121828 0.211595 -0.360345
0.240000 -28.625850 308.564918 -0.000000 0.370634 0.458929 -0.119079 -37.588027 342.859187 -0.000000 0.121844 0.211565 -0.360340
0.245000 -28.723620 308.172985 -0.000000 0.370606 0.458985 -0.119085 -37.658676 342.896222 -0.000000 0.121877 0.211526 -0.360330
0.250000 -28.851007 307.793002 -0.000000 0.370573 0.459055 -0.119086 -37.755549 342.879500 -0.000000 0.121900 0.211441 -0.360332
0.255000 -28.950283 307.468426 -0.000000 0.370538 0.459119 -0.119090 -37.833131 342.825513 -0.000000 0.121957 0.211387 -0.360323
0.260000 -29.060059 307.219605 -0.000000 0.370488 0.459200 -0.119098 -37.954892 342.729753 -0.000000 0.122028 0.211298 -0.360326
0.265000 -29.158942 307.051184 -0.000000 0.370423 0.459274 -0.119101 -38.104379 342.590749 -0.000000 0.122165 0.211226 -0.360268
0.270000 -29.234387 306.943321 -0.000000 0.370349 0.459395 -0.119098 -38.259894 342.408899 -0.000000 0.122232 0.211109 -0.360267
0.275000 -29.273392 306.858221 -0.000000 0.370273 0.459486 -0.119080 -38.395046 342.185959 -0.000000 0.122319 0.210982 -0.360257
0.280000 -29.270157 306.759672 -0.000000 0.370185 0.459573 -0.119076 -38.491198 341.928268 -0.000000 0.122395 0.210869 -0.360262
0.285000 -29.249414 306.639859 -0.000000 0.370101 0.459679 -0.119091 -38.575686 341.647933 -0.000000 0.122474 0.210746 -0.360247
0.290000 -29.179391 306.534629 -0.000000 0.370006 0.459805 -0.119079 -38.636455 341.366235 -0.000000 0.122552 0.210652 -0.360234
0.295000 -29.026088 306.493283 -0.000000 0.369908 0.459938 -0.119061 -38.660031 341.105429 -0.000000 0.122584 0.210538 -0.360260
0.300000 -28.777392 306.541639 -0.000000 0.369804 0.460070 -0.119059 -38.630804 340.889238 -0.000000 0.122593 0.210444 -0.360313
0.305000 -28.494985 306.659349 -0.000000 0.369702 0.460165 -0.119055 -38.590260 340.727822 -0.000000 0.122669 0.210352 -0.360313
0.310000 -28.211942 306.805893 -0.000000 0.369617 0.460322 -0.119055 -38.537077 340.623238 -0.000000 0.122734 0.210269 -0.360312
0.315000 -28.015433 306.944232 -0.000000 0.369532 0.460434 -0.119046 -38.534281 340.560874 -0.000000 0.122934 0.210165 -0.360212
0.320000 -27.783761 307.072610 -0.000000 0.369436 0.460554 -0.119034 -38.434144 340.539006 -0.000000 0.122991 0.210051 -0.360202
0.325000 -27.559421 307.175553 -0.000000 0.369367 0.460638 -0.119045 -38.292156 340.520409 -0.000000 0.123067 0.209962 -0.360210
0.330000 -27.398915 307.229309 -0.000000 0.369293 0.460714 -0.119035 -38.178560 340.468501 -0.000000 0.123135 0.209870 -0.360211
0.335000 -27.315308 307.215671 -0.000000 0.369225 0.460791 -0.119033 -38.102334 340.374967 -0.000000 0.123190 0.209764 -0.360200
0.340000 -27.249542 307.139015 -0.000000 0.369171 0.460850 -0.119033 -37.988829 340.267212 -0.000000 0.123233 0.209708 -0.360196
0.345000 -27.132071 307.022710 -0.000000 0.369133 0.460896 -0.119028 -37.756770 340.189627 -0.000000 0.123125 0.209662 -0.360302
0.350000 -27.219289 306.863620 -0.000000 0.369098 0.460927 -0.119026 -37.685277 340.142898 -0.000000 0.123267 0.209617 -0.360188
0.355000 -27.251177 306.689127 -0.000000 0.369091 0.460946 -0.119026 -37.471434 340.171725 -0.000000 0.123271 0.209603 -0.360192
0.360000 -27.376430 306.475492 -0.000000 0.369084 0.460959 -0.119029 -37.265623 340.248048 -0.000000 0.123267 0.209582 -0.360183
0.365000 -27.554508 306.218815 -0.000000 0.369105 0.460949 -0.119025 -37.031734 340.350729 -0.000000 0.123249 0.209591 -0.360177
0.370000 -27.840845 305.920003 -0.000000 0.369126 0.460947 -0.119014 -36.864747 340.445353 -0.000000 0.123223 0.209596 -0.360177
0.375000 -28.175275 305.596504 -0.000000 0.369156 0.460919 -0.119017 -36.734557 340.528384 -0.000000 0.123202 0.209625 -0.360172
0.380000 -28.531600 305.267463 -0.000000 0.369184 0.460891 -0.119009 -36.638637 340.608778 -0.000000 0.123149 0.209662 -0.360177
0.385000 -28.886805 304.964872 -0.000000 0.369235 0.460857 -0.118999 -36.575712 340.689696 -0.000000 0.123109 0.209706 -0.360170
0.390000 -29.220428 304.725136 -0.000000 0.369279 0.460807 -0.119007 -36.554234 340.755545 -0.000000 0.123091 0.209761 -0.360168
0.395000 -29.493296 304.562394 -0.000000 0.369330 0.460760 -0.119016 -36.554340 340.784599 -0.000000 0.123058 0.209824 -0.360169
0.400000 -29.736536 304.448253 -0.000000 0.369377 0.460718 -0.119015 -36.611736 340.753373 -0.000000 0.123035 0.209888 -0.360163
0.405000 -29.954222 304.343554 -0.000000 0.369409 0.460664 -0.119002 -36.720726 340.654683 -0.000000 0.123016 0.209957 -0.360177
0.410000 -30.136740 304.220050 -0.000000 0.369435 0.460590 -0.119020 -36.865837 340.498834 -0.000000 0.122992 0.210023 -0.360172
0.415000 -30.289889 304.064409 -0.000000 0.369477 0.460533 -0.119029 -37.052963 340.310708 -0.000000 0.122974 0.210088 -0.360167
0.420000 -30.367865 303.895410 -0.000000 0.369501 0.460444 -0.119018 -37.237995 340.121893 -0.000000 0.122940 0.210152 -0.360178
0.425000 -30.374519 303.765537 -0.000000 0.369527 0.460378 -0.119030 -37.456759 339.934579 -0.000000 0.122913 0.210208 -0.360175
